<?xml version="1.0" standalone="no"?>
<!DOCTYPE svg PUBLIC "-//W3C//DTD SVG 20010904//EN"
 "http://www.w3.org/TR/2001/REC-SVG-20010904/DTD/svg10.dtd">
<svg version="1.0" xmlns="http://www.w3.org/2000/svg"
 width="240.000000pt" height="240.000000pt" viewBox="0 0 240.000000 240.000000"
 preserveAspectRatio="xMidYMid meet">

<g transform="translate(0.000000,240.000000) scale(0.100000,-0.100000)"
fill="#000000" stroke="none">
<path d="M300 1260 l0 -250 215 0 215 0 0 250 0 250 -215 0 -215 0 0 -250z
m192 83 l3 -58 33 58 c32 56 33 57 78 57 l45 0 -36 -64 -36 -65 36 -70 c19
-39 35 -73 35 -76 0 -3 -22 -5 -49 -5 l-49 0 -29 73 -28 72 -3 -72 -3 -73 -39
0 -40 0 0 140 0 140 40 0 39 0 3 -57z"/>
<path d="M849 1281 c-43 -43 -41 -101 5 -147 25 -25 43 -34 68 -34 79 0 133
75 104 145 -19 44 -52 65 -104 65 -35 0 -49 -6 -73 -29z m101 -71 c0 -24 -26
-38 -42 -22 -16 16 -2 42 22 42 13 0 20 -7 20 -20z"/>
<path d="M1030 1305 c0 -9 82 -190 89 -198 5 -4 17 14 29 40 11 26 32 74 46
106 l26 57 -40 0 c-35 0 -40 -3 -46 -26 l-7 -27 -14 27 c-11 20 -21 26 -48 26
-19 0 -35 -2 -35 -5z"/>
<path d="M1248 1281 c-28 -25 -33 -36 -33 -76 0 -40 5 -51 33 -76 34 -31 85
-39 123 -18 19 10 19 10 -1 39 -13 18 -26 26 -38 23 -29 -7 -47 22 -34 52 11
24 42 35 42 15 0 -5 -7 -10 -15 -10 -8 0 -15 -9 -15 -20 0 -18 7 -20 60 -20
64 0 69 5 51 53 -28 72 -114 91 -173 38z"/>
<path d="M1480 1285 c-21 -22 -24 -36 -25 -103 l0 -77 38 -3 37 -3 0 50 c0 59
7 81 26 81 10 0 14 12 14 40 0 39 -1 40 -33 40 -23 0 -41 -8 -57 -25z"/>
<path d="M1609 1281 c-23 -23 -29 -38 -29 -71 0 -80 37 -108 143 -109 l67 0 0
75 c0 70 -2 78 -29 105 -24 24 -38 29 -76 29 -38 0 -52 -5 -76 -29z m99 -79
c3 -16 -2 -22 -17 -22 -24 0 -35 15 -27 36 9 23 40 13 44 -14z"/>
<path d="M1858 1281 c-28 -25 -33 -36 -33 -76 0 -40 5 -51 33 -76 34 -31 71
-37 117 -19 l27 10 -20 27 c-11 16 -30 28 -42 28 -30 0 -49 29 -34 53 13 19
44 29 44 13 0 -6 -7 -11 -15 -11 -8 0 -15 -9 -15 -20 0 -19 5 -21 58 -18 56 3
57 3 55 32 -6 81 -111 115 -175 57z"/>
</g>
</svg>
